<?xml version="1.0" standalone="no"?>
<!DOCTYPE svg PUBLIC "-//W3C//DTD SVG 20010904//EN"
 "http://www.w3.org/TR/2001/REC-SVG-20010904/DTD/svg10.dtd">
<svg version="1.0" xmlns="http://www.w3.org/2000/svg"
 width="512.000000pt" height="512.000000pt" viewBox="0 0 512.000000 512.000000"
 preserveAspectRatio="xMidYMid meet">

<g transform="translate(0.000000,512.000000) scale(0.100000,-0.100000)"
fill="#000000" stroke="none">
<path d="M1450 4345 c0 -3 106 -166 236 -362 130 -197 320 -485 423 -641 102
-155 285 -432 406 -615 256 -386 503 -761 850 -1287 136 -206 266 -403 288
-437 l42 -62 198 -1 c108 0 197 2 197 4 0 4 -391 602 -767 1171 -244 370 -420
638 -608 925 -99 151 -243 370 -320 487 -77 117 -230 350 -340 518 l-200 305
-202 0 c-112 0 -203 -2 -203 -5z"/>
</g>
</svg>
